# Blender v2.92.0 OBJ File: ''
# www.blender.org
mtllib personalCockpit.mtl
o Sphere_Sphere.001
v 0.000000 0.000000 -0.211205
v 0.000000 -0.041204 -0.207147
v 0.000000 -0.175610 -0.117339
v 0.000000 -0.211205 0.000000
v -0.000000 0.000000 0.211205
v -0.000000 -0.041204 0.207147
v 0.000000 -0.080825 0.195128
v -0.000000 -0.117339 0.175611
v -0.000000 -0.149344 0.149345
v -0.000000 -0.175610 0.117339
v 0.000000 -0.195128 0.080825
v 0.000000 -0.207147 0.041204
v -0.041204 0.000000 0.207147
v -0.040412 -0.041204 0.203166
v -0.038068 -0.080825 0.191379
v -0.034260 -0.117339 0.172236
v -0.029136 -0.149344 0.146475
v -0.022892 -0.175610 0.115085
v -0.015768 -0.195128 0.079272
v -0.008039 -0.207147 0.040412
v -0.080825 0.000000 0.195128
v -0.079272 -0.041204 0.191379
v -0.074672 -0.080825 0.180275
v -0.067203 -0.117339 0.162243
v -0.057152 -0.149344 0.137976
v -0.044904 -0.175610 0.108407
v -0.030930 -0.195128 0.074672
v -0.015768 -0.207147 0.038068
v -0.117339 0.000000 0.175611
v -0.115085 -0.041204 0.172236
v -0.108407 -0.080825 0.162243
v -0.097564 -0.117339 0.146015
v -0.082971 -0.149344 0.124175
v -0.065190 -0.175610 0.097564
v -0.044904 -0.195128 0.067203
v -0.022892 -0.207147 0.034260
v -0.149344 0.000000 0.149344
v -0.146475 -0.041204 0.146475
v -0.137976 -0.080825 0.137976
v -0.124175 -0.117339 0.124175
v -0.105602 -0.149344 0.105603
v -0.082971 -0.175610 0.082971
v -0.057152 -0.195128 0.057152
v -0.029136 -0.207147 0.029136
v -0.175610 0.000000 0.117339
v -0.172236 -0.041204 0.115085
v -0.162243 -0.080825 0.108407
v -0.146015 -0.117339 0.097564
v -0.124175 -0.149344 0.082971
v -0.097564 -0.175610 0.065190
v -0.067203 -0.195128 0.044904
v -0.034260 -0.207147 0.022892
v -0.195128 0.000000 0.080825
v -0.191379 -0.041204 0.079272
v -0.180275 -0.080825 0.074672
v -0.162243 -0.117339 0.067203
v -0.137976 -0.149344 0.057152
v -0.108407 -0.175610 0.044904
v -0.074672 -0.195128 0.030930
v -0.038068 -0.207147 0.015768
v -0.207147 0.000000 0.041204
v -0.203166 -0.041204 0.040412
v -0.191379 -0.080825 0.038068
v -0.172236 -0.117339 0.034260
v -0.146475 -0.149344 0.029136
v -0.115085 -0.175610 0.022892
v -0.079272 -0.195128 0.015768
v -0.040412 -0.207147 0.008039
v -0.211205 0.000000 0.000000
v -0.207147 -0.041204 0.000000
v -0.195128 -0.080825 0.000000
v -0.175610 -0.117339 0.000000
v -0.149344 -0.149344 0.000000
v -0.117339 -0.175610 0.000000
v -0.080825 -0.195128 0.000000
v -0.041204 -0.207147 0.000000
v -0.207147 0.000000 -0.041204
v -0.203166 -0.041204 -0.040412
v -0.191379 -0.080825 -0.038068
v -0.172236 -0.117339 -0.034260
v -0.146475 -0.149344 -0.029136
v -0.115085 -0.175610 -0.022892
v -0.079272 -0.195128 -0.015768
v -0.040412 -0.207147 -0.008038
v -0.195128 0.000000 -0.080825
v -0.191378 -0.041204 -0.079272
v -0.180275 -0.080825 -0.074672
v -0.162243 -0.117339 -0.067203
v -0.137976 -0.149344 -0.057152
v -0.108407 -0.175610 -0.044904
v -0.074672 -0.195128 -0.030930
v -0.038068 -0.207147 -0.015768
v -0.175610 0.000000 -0.117339
v -0.172236 -0.041204 -0.115084
v -0.162243 -0.080825 -0.108407
v -0.146015 -0.117339 -0.097564
v -0.124175 -0.149344 -0.082971
v -0.097564 -0.175610 -0.065190
v -0.067203 -0.195128 -0.044904
v -0.034260 -0.207147 -0.022892
v -0.149344 0.000000 -0.149344
v -0.146475 -0.041204 -0.146475
v -0.137976 -0.080825 -0.137976
v -0.124175 -0.117339 -0.124175
v -0.105602 -0.149344 -0.105602
v -0.082971 -0.175610 -0.082971
v -0.057152 -0.195128 -0.057152
v -0.029136 -0.207147 -0.029136
v -0.117339 0.000000 -0.175610
v -0.115084 -0.041204 -0.172236
v -0.108407 -0.080825 -0.162243
v -0.097564 -0.117339 -0.146015
v -0.082971 -0.149344 -0.124175
v -0.065190 -0.175610 -0.097564
v -0.044904 -0.195128 -0.067203
v -0.022892 -0.207147 -0.034260
v -0.080825 0.000000 -0.195128
v -0.079272 -0.041204 -0.191378
v -0.074672 -0.080825 -0.180275
v -0.067203 -0.117339 -0.162243
v -0.057152 -0.149344 -0.137976
v -0.044904 -0.175610 -0.108407
v -0.030930 -0.195128 -0.074672
v -0.015768 -0.207147 -0.038067
v -0.041204 0.000000 -0.207147
v -0.040412 -0.041204 -0.203166
v -0.038068 -0.080825 -0.191379
v -0.034260 -0.117339 -0.172236
v -0.029136 -0.149344 -0.146475
v -0.022892 -0.175610 -0.115084
v -0.015768 -0.195128 -0.079272
v -0.008039 -0.207147 -0.040412
v 0.000000 -0.080825 -0.195128
v 0.000000 -0.117339 -0.175610
v 0.000000 -0.149344 -0.149344
v 0.000000 -0.195128 -0.080825
v 0.000000 -0.207147 -0.041204
vt 0.250000 0.250000
vt 0.250000 0.312500
vt 0.218750 0.312500
vt 0.218750 0.250000
vt 0.250000 0.187500
vt 0.218750 0.187500
vt 0.250000 0.125000
vt 0.218750 0.125000
vt 0.250000 0.062500
vt 0.218750 0.062500
vt 0.234375 0.000000
vt 0.250000 0.437500
vt 0.250000 0.500000
vt 0.218750 0.500000
vt 0.218750 0.437500
vt 0.250000 0.375000
vt 0.218750 0.375000
vt 0.203125 0.000000
vt 0.187500 0.062500
vt 0.187500 0.500000
vt 0.187500 0.437500
vt 0.187500 0.375000
vt 0.187500 0.312500
vt 0.187500 0.250000
vt 0.187500 0.187500
vt 0.187500 0.125000
vt 0.156250 0.250000
vt 0.156250 0.187500
vt 0.156250 0.125000
vt 0.156250 0.062500
vt 0.171875 0.000000
vt 0.156250 0.500000
vt 0.156250 0.437500
vt 0.156250 0.375000
vt 0.156250 0.312500
vt 0.125000 0.437500
vt 0.125000 0.375000
vt 0.125000 0.312500
vt 0.125000 0.250000
vt 0.125000 0.187500
vt 0.125000 0.125000
vt 0.125000 0.062500
vt 0.140625 0.000000
vt 0.125000 0.500000
vt 0.093750 0.187500
vt 0.093750 0.125000
vt 0.093750 0.062500
vt 0.109375 0.000000
vt 0.093750 0.500000
vt 0.093750 0.437500
vt 0.093750 0.375000
vt 0.093750 0.312500
vt 0.093750 0.250000
vt 0.062500 0.437500
vt 0.062500 0.375000
vt 0.062500 0.312500
vt 0.062500 0.250000
vt 0.062500 0.187500
vt 0.062500 0.125000
vt 0.062500 0.062500
vt 0.078125 0.000000
vt 0.062500 0.500000
vt 0.031250 0.187500
vt 0.031250 0.125000
vt 0.031250 0.062500
vt 0.046875 0.000000
vt 0.031250 0.500000
vt 0.031250 0.437500
vt 0.031250 0.375000
vt 0.031250 0.312500
vt 0.031250 0.250000
vt 0.000000 0.375000
vt 0.000000 0.312500
vt 0.000000 0.250000
vt 0.000000 0.187500
vt 0.000000 0.125000
vt 0.000000 0.062500
vt 0.015625 0.000000
vt 0.000000 0.500000
vt 0.000000 0.437500
vt 1.000000 0.062500
vt 1.000000 0.125000
vt 0.968750 0.125000
vt 0.968750 0.062500
vt 0.984375 0.000000
vt 1.000000 0.437500
vt 1.000000 0.500000
vt 0.968750 0.500000
vt 0.968750 0.437500
vt 1.000000 0.375000
vt 0.968750 0.375000
vt 1.000000 0.312500
vt 0.968750 0.312500
vt 1.000000 0.250000
vt 0.968750 0.250000
vt 1.000000 0.187500
vt 0.968750 0.187500
vt 0.937500 0.375000
vt 0.937500 0.312500
vt 0.937500 0.250000
vt 0.937500 0.187500
vt 0.937500 0.125000
vt 0.937500 0.062500
vt 0.953125 0.000000
vt 0.937500 0.500000
vt 0.937500 0.437500
vt 0.906250 0.125000
vt 0.906250 0.062500
vt 0.921875 0.000000
vt 0.906250 0.500000
vt 0.906250 0.437500
vt 0.906250 0.375000
vt 0.906250 0.312500
vt 0.906250 0.250000
vt 0.906250 0.187500
vt 0.875000 0.312500
vt 0.875000 0.250000
vt 0.875000 0.187500
vt 0.875000 0.125000
vt 0.875000 0.062500
vt 0.890625 0.000000
vt 0.875000 0.500000
vt 0.875000 0.437500
vt 0.875000 0.375000
vt 0.859375 0.000000
vt 0.843750 0.062500
vt 0.843750 0.500000
vt 0.843750 0.437500
vt 0.843750 0.375000
vt 0.843750 0.312500
vt 0.843750 0.250000
vt 0.843750 0.187500
vt 0.843750 0.125000
vt 0.812500 0.250000
vt 0.812500 0.187500
vt 0.812500 0.125000
vt 0.812500 0.062500
vt 0.828125 0.000000
vt 0.812500 0.500000
vt 0.812500 0.437500
vt 0.812500 0.375000
vt 0.812500 0.312500
vt 0.781250 0.500000
vt 0.781250 0.437500
vt 0.781250 0.375000
vt 0.781250 0.312500
vt 0.781250 0.250000
vt 0.781250 0.187500
vt 0.781250 0.125000
vt 0.781250 0.062500
vt 0.796875 0.000000
vt 0.750000 0.250000
vt 0.750000 0.187500
vt 0.750000 0.125000
vt 0.750000 0.062500
vt 0.765625 0.000000
vt 0.750000 0.500000
vt 0.750000 0.437500
vt 0.750000 0.375000
vt 0.750000 0.312500
vn -0.0698 -0.7023 0.7084
vn -0.0818 -0.5509 0.8305
vn -0.1626 -0.5528 0.8173
vn -0.1385 -0.7040 0.6965
vn -0.0550 -0.8274 0.5589
vn -0.1092 -0.8286 0.5490
vn -0.0381 -0.9210 0.3876
vn -0.0757 -0.9217 0.3804
vn -0.0198 -0.9794 0.2009
vn -0.0392 -0.9796 0.1971
vn -0.0630 -0.9980 0.0000
vn -0.0962 -0.1930 0.9764
vn -0.0975 -0.0975 0.9904
vn -0.1941 -0.0980 0.9760
vn -0.1914 -0.1939 0.9622
vn -0.0907 -0.3789 0.9209
vn -0.1804 -0.3805 0.9070
vn -0.0769 -0.9796 0.1856
vn -0.3808 -0.0980 0.9194
vn -0.3754 -0.1939 0.9063
vn -0.3539 -0.3805 0.8544
vn -0.3189 -0.5528 0.7699
vn -0.2717 -0.7040 0.6561
vn -0.2142 -0.8286 0.5171
vn -0.1484 -0.9217 0.3583
vn -0.3945 -0.7040 0.5904
vn -0.3110 -0.8286 0.4654
vn -0.2155 -0.9217 0.3225
vn -0.1116 -0.9796 0.1671
vn -0.5529 -0.0980 0.8274
vn -0.5450 -0.1939 0.8157
vn -0.5137 -0.3805 0.7689
vn -0.4630 -0.5528 0.6929
vn -0.6937 -0.1939 0.6937
vn -0.6539 -0.3805 0.6539
vn -0.5893 -0.5528 0.5893
vn -0.5021 -0.7040 0.5021
vn -0.3958 -0.8286 0.3958
vn -0.2743 -0.9217 0.2743
vn -0.1421 -0.9796 0.1421
vn -0.7037 -0.0980 0.7037
vn -0.4654 -0.8286 0.3110
vn -0.3225 -0.9217 0.2155
vn -0.1671 -0.9796 0.1116
vn -0.8274 -0.0980 0.5529
vn -0.8157 -0.1939 0.5450
vn -0.7689 -0.3805 0.5137
vn -0.6929 -0.5528 0.4630
vn -0.5904 -0.7040 0.3945
vn -0.9063 -0.1939 0.3754
vn -0.8544 -0.3805 0.3539
vn -0.7699 -0.5528 0.3189
vn -0.6561 -0.7040 0.2717
vn -0.5171 -0.8286 0.2142
vn -0.3583 -0.9217 0.1484
vn -0.1856 -0.9796 0.0769
vn -0.9194 -0.0980 0.3808
vn -0.5490 -0.8286 0.1092
vn -0.3804 -0.9217 0.0757
vn -0.1971 -0.9796 0.0392
vn -0.9760 -0.0980 0.1941
vn -0.9622 -0.1939 0.1914
vn -0.9070 -0.3805 0.1804
vn -0.8173 -0.5528 0.1626
vn -0.6965 -0.7040 0.1385
vn -0.9247 -0.3805 0.0000
vn -0.8333 -0.5528 0.0000
vn -0.7101 -0.7040 0.0000
vn -0.5598 -0.8286 0.0000
vn -0.3879 -0.9217 0.0000
vn -0.2010 -0.9796 0.0000
vn -0.9952 -0.0980 0.0000
vn -0.9810 -0.1939 0.0000
vn -0.3804 -0.9217 -0.0757
vn -0.1971 -0.9796 -0.0392
vn -0.9760 -0.0980 -0.1941
vn -0.9622 -0.1939 -0.1914
vn -0.9070 -0.3805 -0.1804
vn -0.8173 -0.5528 -0.1626
vn -0.6965 -0.7040 -0.1385
vn -0.5490 -0.8286 -0.1092
vn -0.8544 -0.3805 -0.3539
vn -0.7699 -0.5528 -0.3189
vn -0.6561 -0.7040 -0.2717
vn -0.5171 -0.8286 -0.2142
vn -0.3583 -0.9217 -0.1484
vn -0.1856 -0.9796 -0.0769
vn -0.9194 -0.0980 -0.3808
vn -0.9063 -0.1939 -0.3754
vn -0.3225 -0.9217 -0.2155
vn -0.1671 -0.9796 -0.1116
vn -0.8274 -0.0980 -0.5529
vn -0.8157 -0.1939 -0.5450
vn -0.7689 -0.3805 -0.5137
vn -0.6929 -0.5528 -0.4630
vn -0.5904 -0.7040 -0.3945
vn -0.4654 -0.8286 -0.3110
vn -0.5893 -0.5528 -0.5893
vn -0.5021 -0.7040 -0.5021
vn -0.3958 -0.8286 -0.3958
vn -0.2743 -0.9217 -0.2743
vn -0.1421 -0.9796 -0.1421
vn -0.7037 -0.0980 -0.7037
vn -0.6937 -0.1939 -0.6937
vn -0.6539 -0.3805 -0.6539
vn -0.1116 -0.9796 -0.1671
vn -0.5529 -0.0980 -0.8274
vn -0.5450 -0.1939 -0.8157
vn -0.5137 -0.3805 -0.7689
vn -0.4630 -0.5528 -0.6929
vn -0.3945 -0.7040 -0.5904
vn -0.3110 -0.8286 -0.4654
vn -0.2155 -0.9217 -0.3225
vn -0.2717 -0.7040 -0.6561
vn -0.2142 -0.8286 -0.5171
vn -0.1484 -0.9217 -0.3583
vn -0.0769 -0.9796 -0.1856
vn -0.3808 -0.0980 -0.9194
vn -0.3754 -0.1939 -0.9063
vn -0.3539 -0.3805 -0.8544
vn -0.3189 -0.5528 -0.7699
vn -0.1941 -0.0980 -0.9760
vn -0.1914 -0.1939 -0.9622
vn -0.1804 -0.3805 -0.9070
vn -0.1626 -0.5528 -0.8173
vn -0.1385 -0.7040 -0.6965
vn -0.1092 -0.8286 -0.5490
vn -0.0757 -0.9217 -0.3804
vn -0.0392 -0.9796 -0.1971
vn -0.0698 -0.7023 -0.7084
vn -0.0550 -0.8274 -0.5589
vn -0.0381 -0.9210 -0.3876
vn -0.0198 -0.9794 -0.2009
vn -0.0975 -0.0975 -0.9904
vn -0.0962 -0.1930 -0.9764
vn -0.0907 -0.3789 -0.9209
vn -0.0818 -0.5509 -0.8305
usemtl None
s 1
f 9/1/1 8/2/2 16/3/3 17/4/4
f 10/5/5 9/1/1 17/4/4 18/6/6
f 11/7/7 10/5/5 18/6/6 19/8/8
f 12/9/9 11/7/7 19/8/8 20/10/10
f 4/11/11 12/9/9 20/10/10
f 6/12/12 5/13/13 13/14/14 14/15/15
f 7/16/16 6/12/12 14/15/15 15/17/17
f 8/2/2 7/16/16 15/17/17 16/3/3
f 4/18/11 20/10/10 28/19/18
f 14/15/15 13/14/14 21/20/19 22/21/20
f 15/17/17 14/15/15 22/21/20 23/22/21
f 16/3/3 15/17/17 23/22/21 24/23/22
f 17/4/4 16/3/3 24/23/22 25/24/23
f 18/6/6 17/4/4 25/24/23 26/25/24
f 19/8/8 18/6/6 26/25/24 27/26/25
f 20/10/10 19/8/8 27/26/25 28/19/18
f 26/25/24 25/24/23 33/27/26 34/28/27
f 27/26/25 26/25/24 34/28/27 35/29/28
f 28/19/18 27/26/25 35/29/28 36/30/29
f 4/31/11 28/19/18 36/30/29
f 22/21/20 21/20/19 29/32/30 30/33/31
f 23/22/21 22/21/20 30/33/31 31/34/32
f 24/23/22 23/22/21 31/34/32 32/35/33
f 25/24/23 24/23/22 32/35/33 33/27/26
f 31/34/32 30/33/31 38/36/34 39/37/35
f 32/35/33 31/34/32 39/37/35 40/38/36
f 33/27/26 32/35/33 40/38/36 41/39/37
f 34/28/27 33/27/26 41/39/37 42/40/38
f 35/29/28 34/28/27 42/40/38 43/41/39
f 36/30/29 35/29/28 43/41/39 44/42/40
f 4/43/11 36/30/29 44/42/40
f 30/33/31 29/32/30 37/44/41 38/36/34
f 43/41/39 42/40/38 50/45/42 51/46/43
f 44/42/40 43/41/39 51/46/43 52/47/44
f 4/48/11 44/42/40 52/47/44
f 38/36/34 37/44/41 45/49/45 46/50/46
f 39/37/35 38/36/34 46/50/46 47/51/47
f 40/38/36 39/37/35 47/51/47 48/52/48
f 41/39/37 40/38/36 48/52/48 49/53/49
f 42/40/38 41/39/37 49/53/49 50/45/42
f 47/51/47 46/50/46 54/54/50 55/55/51
f 48/52/48 47/51/47 55/55/51 56/56/52
f 49/53/49 48/52/48 56/56/52 57/57/53
f 50/45/42 49/53/49 57/57/53 58/58/54
f 51/46/43 50/45/42 58/58/54 59/59/55
f 52/47/44 51/46/43 59/59/55 60/60/56
f 4/61/11 52/47/44 60/60/56
f 46/50/46 45/49/45 53/62/57 54/54/50
f 59/59/55 58/58/54 66/63/58 67/64/59
f 60/60/56 59/59/55 67/64/59 68/65/60
f 4/66/11 60/60/56 68/65/60
f 54/54/50 53/62/57 61/67/61 62/68/62
f 55/55/51 54/54/50 62/68/62 63/69/63
f 56/56/52 55/55/51 63/69/63 64/70/64
f 57/57/53 56/56/52 64/70/64 65/71/65
f 58/58/54 57/57/53 65/71/65 66/63/58
f 64/70/64 63/69/63 71/72/66 72/73/67
f 65/71/65 64/70/64 72/73/67 73/74/68
f 66/63/58 65/71/65 73/74/68 74/75/69
f 67/64/59 66/63/58 74/75/69 75/76/70
f 68/65/60 67/64/59 75/76/70 76/77/71
f 4/78/11 68/65/60 76/77/71
f 62/68/62 61/67/61 69/79/72 70/80/73
f 63/69/63 62/68/62 70/80/73 71/72/66
f 76/81/71 75/82/70 83/83/74 84/84/75
f 4/85/11 76/81/71 84/84/75
f 70/86/73 69/87/72 77/88/76 78/89/77
f 71/90/66 70/86/73 78/89/77 79/91/78
f 72/92/67 71/90/66 79/91/78 80/93/79
f 73/94/68 72/92/67 80/93/79 81/95/80
f 74/96/69 73/94/68 81/95/80 82/97/81
f 75/82/70 74/96/69 82/97/81 83/83/74
f 80/93/79 79/91/78 87/98/82 88/99/83
f 81/95/80 80/93/79 88/99/83 89/100/84
f 82/97/81 81/95/80 89/100/84 90/101/85
f 83/83/74 82/97/81 90/101/85 91/102/86
f 84/84/75 83/83/74 91/102/86 92/103/87
f 4/104/11 84/84/75 92/103/87
f 78/89/77 77/88/76 85/105/88 86/106/89
f 79/91/78 78/89/77 86/106/89 87/98/82
f 92/103/87 91/102/86 99/107/90 100/108/91
f 4/109/11 92/103/87 100/108/91
f 86/106/89 85/105/88 93/110/92 94/111/93
f 87/98/82 86/106/89 94/111/93 95/112/94
f 88/99/83 87/98/82 95/112/94 96/113/95
f 89/100/84 88/99/83 96/113/95 97/114/96
f 90/101/85 89/100/84 97/114/96 98/115/97
f 91/102/86 90/101/85 98/115/97 99/107/90
f 97/114/96 96/113/95 104/116/98 105/117/99
f 98/115/97 97/114/96 105/117/99 106/118/100
f 99/107/90 98/115/97 106/118/100 107/119/101
f 100/108/91 99/107/90 107/119/101 108/120/102
f 4/121/11 100/108/91 108/120/102
f 94/111/93 93/110/92 101/122/103 102/123/104
f 95/112/94 94/111/93 102/123/104 103/124/105
f 96/113/95 95/112/94 103/124/105 104/116/98
f 4/125/11 108/120/102 116/126/106
f 102/123/104 101/122/103 109/127/107 110/128/108
f 103/124/105 102/123/104 110/128/108 111/129/109
f 104/116/98 103/124/105 111/129/109 112/130/110
f 105/117/99 104/116/98 112/130/110 113/131/111
f 106/118/100 105/117/99 113/131/111 114/132/112
f 107/119/101 106/118/100 114/132/112 115/133/113
f 108/120/102 107/119/101 115/133/113 116/126/106
f 114/132/112 113/131/111 121/134/114 122/135/115
f 115/133/113 114/132/112 122/135/115 123/136/116
f 116/126/106 115/133/113 123/136/116 124/137/117
f 4/138/11 116/126/106 124/137/117
f 110/128/108 109/127/107 117/139/118 118/140/119
f 111/129/109 110/128/108 118/140/119 119/141/120
f 112/130/110 111/129/109 119/141/120 120/142/121
f 113/131/111 112/130/110 120/142/121 121/134/114
f 118/140/119 117/139/118 125/143/122 126/144/123
f 119/141/120 118/140/119 126/144/123 127/145/124
f 120/142/121 119/141/120 127/145/124 128/146/125
f 121/134/114 120/142/121 128/146/125 129/147/126
f 122/135/115 121/134/114 129/147/126 130/148/127
f 123/136/116 122/135/115 130/148/127 131/149/128
f 124/137/117 123/136/116 131/149/128 132/150/129
f 4/151/11 124/137/117 132/150/129
f 130/148/127 129/147/126 135/152/130 3/153/131
f 131/149/128 130/148/127 3/153/131 136/154/132
f 132/150/129 131/149/128 136/154/132 137/155/133
f 4/156/11 132/150/129 137/155/133
f 126/144/123 125/143/122 1/157/134 2/158/135
f 127/145/124 126/144/123 2/158/135 133/159/136
f 128/146/125 127/145/124 133/159/136 134/160/137
f 129/147/126 128/146/125 134/160/137 135/152/130
